<svg width="28" height="28" viewBox="0 0 28 28" fill="none" xmlns="http://www.w3.org/2000/svg">
<g clip-path="url(#clip0_1_411)">
<path d="M26.25 19.294H25.375V12.3115C25.375 6.03774 20.2738 0.936523 14 0.936523C7.72631 0.936523 2.62504 6.03774 2.62504 12.3115V19.294H1.75004C1.19004 19.2852 0.73507 19.8802 0.910079 20.4227L1.66257 22.934C1.77632 23.3103 2.11759 23.564 2.50254 23.564H6.89504L9.90504 24.6053C9.99258 24.6315 10.0888 24.649 10.1938 24.649H19.0138L21.1751 26.8015C21.3325 26.9678 21.5601 27.064 21.7876 27.064H26.25C26.7313 27.064 27.125 26.6702 27.125 26.189V20.169C27.125 19.6878 26.7313 19.294 26.25 19.294ZM7.81379 9.04774C7.58633 9.47648 7.05254 9.63402 6.63256 9.40652C6.20382 9.18777 6.03756 8.65402 6.26507 8.22523C6.79005 7.31525 8.85504 4.13024 9.99258 5.48648C10.2813 5.87148 10.2026 6.41398 9.81757 6.70274C8.98631 7.32402 8.29508 8.13776 7.81379 9.04774ZM25.375 25.314H22.1551L20.0025 23.1615C19.8363 22.9952 19.6088 22.899 19.3813 22.899H10.3338L7.32379 21.8577C7.37629 21.7615 3.24632 21.8315 3.15879 21.814L2.92257 21.044H5.87132V16.8702C5.88884 15.7152 7.6038 15.7152 7.62132 16.8702V21.044H9.31882V13.1778C9.31882 12.8015 9.5638 12.4603 9.92257 12.3465L12.7576 11.4452V7.23648C12.7488 6.7115 13.2563 6.274 13.7725 6.37024L18.4888 7.149C18.9088 7.21902 19.2238 7.57774 19.2238 8.00648V9.73026L22.1026 10.8415C22.4438 10.9727 22.6626 11.2965 22.6626 11.6553V21.044H25.375V25.314Z" fill="white" fill-opacity="0.53"/>
<path d="M1.75277 24.0764C1.26967 24.0764 0.87793 24.4681 0.87793 24.9512V26.1854C0.87793 26.6686 1.26966 27.0604 1.75282 27.0604H15.6731C16.1563 27.0604 16.548 26.6686 16.548 26.1854C16.548 25.7022 16.1563 25.3105 15.6731 25.3105H2.62771C2.70361 24.7077 2.43605 24.0824 1.75277 24.0764Z" fill="white" fill-opacity="0.53"/>
<path d="M11.0688 21.0435H12.7576V13.2822L11.0688 13.816V21.0435Z" fill="white" fill-opacity="0.53"/>
<path d="M14.5076 21.0437H17.4738V8.74998L14.5076 8.26874V21.0437Z" fill="white" fill-opacity="0.53"/>
<path d="M19.2239 21.0432H20.9126V12.2582L19.2239 11.6019V21.0432Z" fill="white" fill-opacity="0.53"/>
</g>
<defs>
<clipPath id="clip0_1_411">
<rect width="28" height="28" fill="white"/>
</clipPath>
</defs>
</svg>
