<svg width="28" height="28" viewBox="0 0 28 28" fill="none" xmlns="http://www.w3.org/2000/svg">
<g clip-path="url(#clip0_1_402)">
<path d="M20.2825 17.8369C20.1194 17.7702 19.9794 17.6571 19.8799 17.5117C19.7804 17.3663 19.7256 17.1949 19.7225 17.0188C19.7225 14.6213 17.1631 12.6875 14 12.6875C10.8369 12.6875 8.2775 14.6213 8.2775 17.01C8.27786 17.183 8.22693 17.3522 8.13115 17.4963C8.03537 17.6403 7.89903 17.7528 7.73937 17.8194C6.67172 18.2525 5.79142 19.0488 5.2539 20.0679C4.71637 21.087 4.55619 22.2632 4.80164 23.3889C5.04708 24.5146 5.68237 25.5174 6.59533 26.2202C7.50829 26.923 8.64021 27.2807 9.79125 27.23C10.8088 27.233 11.805 26.9379 12.6569 26.3812C13.0564 26.1207 13.523 25.982 14 25.982C14.477 25.982 14.9436 26.1207 15.3431 26.3812C16.195 26.9379 17.1912 27.233 18.2087 27.23C19.3568 27.2809 20.4861 26.9253 21.3978 26.2256C22.3094 25.5259 22.9451 24.5271 23.1928 23.4049C23.4406 22.2827 23.2846 21.1091 22.7522 20.0906C22.2199 19.0721 21.3453 18.274 20.2825 17.8369Z" fill="white" fill-opacity="0.53"/>
<path d="M6.77399 15.5246C7.88797 14.4106 7.62481 12.3414 6.18621 10.9028C4.74762 9.4642 2.67836 9.20104 1.56439 10.315C0.450415 11.429 0.713574 13.4982 2.15217 14.9368C3.59076 16.3754 5.66002 16.6386 6.77399 15.5246Z" fill="white" fill-opacity="0.53"/>
<path d="M25.8494 15.3747C27.288 13.9361 27.5512 11.8669 26.4372 10.7529C25.3232 9.63894 23.254 9.9021 21.8154 11.3407C20.3768 12.7793 20.1136 14.8485 21.2276 15.9625C22.3416 17.0765 24.4108 16.8133 25.8494 15.3747Z" fill="white" fill-opacity="0.53"/>
<path d="M21.105 9.38474C19.8975 11.476 18.2831 11.0122 16.73 10.1066C15.1769 9.20099 14.8663 6.76848 16.0738 4.67723C17.2813 2.58598 19.5344 1.61473 21.105 2.52911C22.6756 3.44348 22.3125 7.29349 21.105 9.38474Z" fill="white" fill-opacity="0.53"/>
<path d="M7.16193 9.45035C8.36943 11.5416 9.98381 11.0778 11.5369 10.1722C13.0901 9.2666 13.4007 6.8341 12.1932 4.74285C10.9857 2.6516 8.73256 1.68035 7.16193 2.59472C5.59131 3.5091 5.95443 7.3591 7.16193 9.45035Z" fill="white" fill-opacity="0.53"/>
</g>
<defs>
<clipPath id="clip0_1_402">
<rect width="28" height="28" fill="white"/>
</clipPath>
</defs>
</svg>
