<svg width="29" height="28" viewBox="0 0 29 28" fill="none" xmlns="http://www.w3.org/2000/svg">
<path d="M24.3438 11.8125H23.25V5.25H16.9062V4.15625C16.9062 2.34062 15.4406 0.875 13.625 0.875C11.8094 0.875 10.3438 2.34062 10.3438 4.15625V5.25H3.5625V11.8125H4.65625C6.47187 11.8125 7.9375 13.2781 7.9375 15.0938C7.9375 16.9094 6.47187 18.375 4.65625 18.375H3.5625V24.9375H10.3438V23.8438C10.3438 22.0281 11.8094 20.5625 13.625 20.5625C15.4406 20.5625 16.9062 22.0281 16.9062 23.8438V24.9375H23.25V18.375H24.3438C26.1594 18.375 27.625 16.9094 27.625 15.0938C27.625 13.2781 26.1594 11.8125 24.3438 11.8125Z" fill="white" fill-opacity="0.53"/>
</svg>
