<svg width="20" height="20" viewBox="0 0 20 20" fill="none" xmlns="http://www.w3.org/2000/svg">
<g clip-path="url(#clip0_1_323)">
<path d="M10.0556 1.8775C10.3962 1.92562 10.4269 2.025 10.5069 2.13625C10.78 2.51688 10.4781 3.12313 9.95374 3.12625C9.93874 3.12625 9.92437 3.12688 9.90937 3.12688C7.28874 3.16813 4.81687 4.79813 3.74187 7.13813C2.60874 9.60375 3.11249 12.7325 4.98937 14.7244C7.25437 17.1288 11.3169 17.5881 14.0812 15.5463C15.9337 14.1775 17.0212 11.8344 16.8637 9.53625C16.6844 6.9075 14.9019 4.47938 12.3575 3.54313C12.3575 3.54313 11.9075 3.26937 11.9519 2.88437C11.9987 2.47687 12.4619 2.24313 12.9 2.41C13.0362 2.4625 13.1712 2.51813 13.3044 2.57688C16.0069 3.77875 17.9437 6.56563 18.1175 9.53C18.2994 12.6388 16.535 15.7756 13.7437 17.2275C11.3556 18.47 8.34812 18.4219 5.99374 17.0863C3.90999 15.9044 2.39187 13.7613 1.98374 11.3963C1.54124 8.82563 2.42187 6.06063 4.28249 4.2225C5.78249 2.74063 7.86187 1.88188 9.99625 1.875C10.0162 1.87563 10.0362 1.87687 10.0556 1.8775ZM15.0031 10.6331H9.99812C9.88437 10.63 9.8525 10.6194 9.79187 10.5981C9.54687 10.5125 9.38187 10.3194 9.37312 10.0075V5.00313C9.37625 4.88875 9.38687 4.85688 9.40812 4.79625C9.49374 4.55125 9.68687 4.38625 9.99812 4.3775C10.01 4.3775 10.0219 4.37813 10.0337 4.37813C10.1475 4.38813 10.1781 4.40063 10.2381 4.425C10.4662 4.52 10.6156 4.70313 10.6237 5.00313V9.3825H15.0031C15.0069 9.38313 15.7406 9.58938 15.6131 10.1469C15.5506 10.4213 15.2887 10.6256 15.0031 10.6331Z" fill="#00AF40"/>
</g>
<defs>
<clipPath id="clip0_1_323">
<rect width="20" height="20" fill="white"/>
</clipPath>
</defs>
</svg>
