<svg width="27" height="27" viewBox="0 0 27 27" fill="none" xmlns="http://www.w3.org/2000/svg">
<circle cx="13.5" cy="13.5" r="13.5" transform="rotate(-180 13.5 13.5)" fill="#E0E0E0"/>
<path d="M15.9196 10.125C15.8778 10.1664 15.8447 10.2157 15.822 10.27C15.7994 10.3243 15.7877 10.3826 15.7877 10.4414C15.7877 10.5003 15.7994 10.5586 15.822 10.6129C15.8447 10.6672 15.8778 10.7165 15.9196 10.7579L17.9701 12.8084H7.477C7.35878 12.8084 7.2454 12.8554 7.16181 12.939C7.07821 13.0226 7.03125 13.1359 7.03125 13.2542C7.03125 13.3724 7.07821 13.4858 7.16181 13.5694C7.2454 13.6529 7.35878 13.6999 7.477 13.6999H17.9612L15.9196 15.737C15.8366 15.8205 15.79 15.9335 15.79 16.0513C15.79 16.169 15.8366 16.282 15.9196 16.3655C16.0031 16.4485 16.1161 16.4951 16.2339 16.4951C16.3516 16.4951 16.4646 16.4485 16.5481 16.3655L19.3831 13.5305C19.4213 13.4939 19.4516 13.45 19.4724 13.4013C19.4931 13.3527 19.5038 13.3003 19.5038 13.2475C19.5038 13.1946 19.4931 13.1423 19.4724 13.0936C19.4516 13.045 19.4213 13.001 19.3831 12.9644L16.5526 10.125C16.5111 10.0832 16.4618 10.05 16.4075 10.0274C16.3532 10.0048 16.2949 9.9931 16.2361 9.9931C16.1772 9.9931 16.119 10.0048 16.0647 10.0274C16.0103 10.05 15.961 10.0832 15.9196 10.125Z" fill="black"/>
</svg>
