<svg width="40" height="41" viewBox="0 0 40 41" fill="none" xmlns="http://www.w3.org/2000/svg">
<g filter="url(#filter0_b_1_573)">
<circle cx="20" cy="20.5" r="20" fill="white" fill-opacity="0.27"/>
</g>
<path d="M28.5683 28.1812L24.5058 24.1187H24.462C25.7142 22.6423 26.347 20.7389 26.228 18.8066C26.109 16.8744 25.2475 15.063 23.8237 13.7514C22.3998 12.4397 20.5239 11.7295 18.5885 11.7692C16.653 11.8088 14.8078 12.5954 13.4389 13.9643C12.07 15.3332 11.2834 17.1783 11.2438 19.1138C11.2041 21.0493 11.9143 22.9252 13.226 24.3491C14.5376 25.7729 16.349 26.6344 18.2812 26.7534C20.2135 26.8724 22.1169 26.2396 23.5933 24.9874C23.5933 24.9874 23.5933 25.0187 23.5933 25.0312L27.6558 29.0937C27.7139 29.1523 27.783 29.1988 27.8592 29.2305C27.9353 29.2622 28.017 29.2786 28.0995 29.2786C28.1821 29.2786 28.2637 29.2622 28.3399 29.2305C28.4161 29.1988 28.4852 29.1523 28.5433 29.0937C28.6074 29.037 28.6591 28.9677 28.6953 28.8901C28.7315 28.8126 28.7514 28.7284 28.7537 28.6429C28.7561 28.5573 28.7408 28.4722 28.7089 28.3928C28.677 28.3134 28.6292 28.2413 28.5683 28.1812ZM18.7495 25.4999C17.5134 25.4999 16.305 25.1334 15.2772 24.4466C14.2494 23.7599 13.4483 22.7837 12.9753 21.6417C12.5023 20.4997 12.3785 19.243 12.6196 18.0306C12.8608 16.8182 13.456 15.7046 14.3301 14.8305C15.2042 13.9564 16.3178 13.3612 17.5302 13.12C18.7426 12.8789 19.9993 13.0026 21.1413 13.4757C22.2834 13.9487 23.2595 14.7498 23.9462 15.7776C24.633 16.8054 24.9995 18.0138 24.9995 19.2499C24.9995 20.0707 24.8379 20.8834 24.5238 21.6417C24.2097 22.4 23.7493 23.089 23.169 23.6694C22.5886 24.2497 21.8996 24.7101 21.1413 25.0242C20.383 25.3383 19.5703 25.4999 18.7495 25.4999Z" fill="#4C4C4C"/>
<defs>
<filter id="filter0_b_1_573" x="-9" y="-8.5" width="58" height="58" filterUnits="userSpaceOnUse" color-interpolation-filters="sRGB">
<feFlood flood-opacity="0" result="BackgroundImageFix"/>
<feGaussianBlur in="BackgroundImageFix" stdDeviation="4.5"/>
<feComposite in2="SourceAlpha" operator="in" result="effect1_backgroundBlur_1_573"/>
<feBlend mode="normal" in="SourceGraphic" in2="effect1_backgroundBlur_1_573" result="shape"/>
</filter>
</defs>
</svg>
